<svg xmlns="http://www.w3.org/2000/svg" viewBox="0 0 100 100" fill="currentColor">
  <!-- Outer complex path -->
  <path d="M35 15 C20 15 15 20 15 35 C15 42 22 47 28 50 C22 53 15 58 15 65 C15 80 20 85 35 85 C42 85 47 78 50 72 C53 78 58 85 65 85 C80 85 85 80 85 65 C85 58 78 53 72 50 C78 47 85 42 85 35 C85 20 80 15 65 15 C58 15 53 22 50 28 C47 22 42 15 35 15 Z" fill="none" stroke="currentColor" stroke-width="8" stroke-linejoin="round"/>
  <!-- Inner hole -->
  <circle cx="50" cy="50" r="10" fill="none" stroke="currentColor" stroke-width="8"/>
</svg>
